<?xml version="1.0" encoding="UTF-8"?>
<svg id="uuid-bac4e5af-3c89-435e-99e9-6e9495a3cfce" data-name="Layer 1" xmlns="http://www.w3.org/2000/svg" viewBox="0 0 200 200">
  <defs>
    <style>
      .uuid-79d5cc39-489b-4c74-b103-487a8d11b62c {
        fill: #7ee0e6;
      }

      .uuid-d5bf3bb6-d5ff-4519-a19d-17ccc8c2bfbb {
        fill: #8bc9df;
      }

      .uuid-849831ae-22f8-4fe6-903b-293c4180ecc8 {
        fill: #bba9e6;
      }

      .uuid-fa0d50b9-7208-4972-9112-3a4a15544398 {
        fill: #7ccfdd;
      }

      .uuid-6417bd72-8e09-4001-8674-8fe427cb4955 {
        fill: #9cd2e6;
      }

      .uuid-7ed385ff-91a8-4597-894a-665146211ed0 {
        fill: #9fc1e2;
      }

      .uuid-83ad8a18-5e2a-4f7a-bcd2-3f82ee7511ac {
        fill: #41e9e1;
      }

      .uuid-21697005-75ac-4115-8c2f-f3a1ae8a8afb {
        fill: #53e5e1;
      }

      .uuid-a8bf1611-4e1a-4457-9577-1bfe07be3000 {
        fill: #aac8e6;
      }

      .uuid-46577ae9-f2e1-404d-94f1-8513b60927d6 {
        fill: #ce51e3;
      }

      .uuid-4cee3954-5771-47a5-98f0-714ec8ed52a1 {
        fill: #c766e3;
      }

      .uuid-63f6a243-a75b-49b4-8ff3-cb2d34ee6593 {
        fill: #8cd9e6;
      }

      .uuid-98b7d9cf-0274-4653-aa2c-6f40d01ef270 {
        fill: #bf99e5;
      }

      .uuid-cd6f9114-590e-47a6-b7ac-cc53355a282d {
        fill: #ca66e4;
      }

      .uuid-23ed7e1e-7997-4046-aacf-3bbd0eeed67b {
        fill: #27ebde;
      }

      .uuid-ee11b294-39ee-4cc5-b664-807d960fdabb {
        fill: #b58ee0;
      }

      .uuid-97b3b8a6-4ba7-473a-860e-19c6d21ab3dd {
        fill: #c079e2;
      }

      .uuid-7dafbc6e-bd84-42e1-85bc-ba94b9f6290a {
        fill: #b1b0e4;
      }

      .uuid-29c5ad72-de78-424f-8f4a-5501118be0ba {
        fill: #95add6;
      }

      .uuid-448a198b-fd5e-45b5-8160-111cf52a84d0 {
        fill: #a7a0dd;
      }

      .uuid-573393e2-99bb-4b27-ab54-667f9a2ab87a {
        fill: #68e3e3;
      }

      .uuid-4e12c341-eec3-47c3-a526-5644fe6828a9 {
        fill: #d530e3;
      }

      .uuid-7a0d7a5e-b729-4646-ab9e-0074fbd559ae {
        fill: #78dee4;
      }
    </style>
  </defs>
  <rect x="8.61" y="9.48" width="182.78" height="181.04" rx="16.96" ry="16.96"/>
  <g>
    <path class="uuid-7ed385ff-91a8-4597-894a-665146211ed0" d="M79.93,89.22c8.23,0,16.46,0,24.69,0-.18,1.86,.2,3.2,2,4.43,6.57,4.49,13.61,8.26,19.92,13.13,1.81,1.4,4.03,1.48,6.25,1.53,3.07,.07,6.17-.47,9.21,.44,.41,.21,.63,.54,.67,1-.2,.46-.54,.67-1.03,.65-7.44,0-14.88,0-22.31,0-.86,0-1.72,0-2.58,0-10.74-.68-18.44-8.05-27.39-12.63-2.58-1.32-5.02-3.02-7.45-4.67-1.3-.89-3.01-1.73-1.99-3.88Z"/>
    <path class="uuid-97b3b8a6-4ba7-473a-860e-19c6d21ab3dd" d="M129.38,142.99c-6.17,.01-12.35,.02-18.52,.03-.67-1.85-1.57-3.43-3.55-4.28-10.39-4.43-20.54-9.39-30.53-14.66-2.42-1.28-5.04-.52-7.58-.61-1.9-.12-3.94,.44-5.54-1.12,2.9-1.48,6.01-.6,9.02-.7,3.97-.13,7.96,.06,11.93,.11,7.31-.6,13.62,1.91,19.94,5.45,7.27,4.07,15.33,6.62,22.75,10.47,3.26,1.69,3.68,2.86,2.08,5.3Z"/>
    <path class="uuid-7dafbc6e-bd84-42e1-85bc-ba94b9f6290a" d="M79.93,89.22c.03,1.3,.84,2.11,1.82,2.76,9.02,5.96,18.69,10.83,27.94,16.41,2.12,1.28,4.61,.09,6.55,1.57-5.01,1-10.08,.18-15.11,.45-7.3,.23-13.41-2.53-18.72-7.37-.97-.88-2.31-1.03-3.54-1.4-3.35-.99-6.5-2.43-9.15-4.74-2.55-2.23-5.37-3.9-8.52-5.1-1.23-.47-2.88-.65-2.88-2.56,7.2,0,14.41,0,21.61-.01Z"/>
    <path class="uuid-fa0d50b9-7208-4972-9112-3a4a15544398" d="M118.55,110.19c7.97-.08,15.94-.17,23.9-.25,2.89-.7,5.86,.03,8.48-.36-2.64-.1-5.56,.46-8.46-.32-.26,0-.51,0-.77,0-2.95-2.73-6.19-5.1-9.94-6.52-5.49-2.08-9.01-6.72-13.61-9.95-.8-.56-1.13-1.4-.73-2.38,.37-.9,1.2-.77,1.96-.84,2.02-.18,4.09,.43,6.08-.35,2.83-.05,5.65-.08,8.48-.17,1.36-.04,2.54,.3,3.51,1.27,5.45,5.47,10.9,10.93,16.35,16.39,.76,.76,1.43,1.6,.94,2.71-.48,1.11-1.56,1.18-2.62,1.18-11.19-.06-22.37-.13-33.56-.19l-.02-.24Z"/>
    <path class="uuid-ee11b294-39ee-4cc5-b664-807d960fdabb" d="M129.38,142.99c1.34-2.28-.21-3.35-1.9-4.14-6.96-3.22-13.95-6.36-20.94-9.52-.47-.21-.99-.3-1.43-.56-6.36-3.73-12.77-7.33-20.51-7,6.95,0,13.9,0,20.85,0,8.45-1.15,15.18,3.62,22.37,6.66,3.5,1.48,6.61,3.86,10.13,5.47,1.73,.79,3.28,2.19,2.21,4.58-2.49,4.14-6.12,5.56-10.78,4.51Z"/>
    <path class="uuid-46577ae9-f2e1-404d-94f1-8513b60927d6" d="M96.14,142.99c-10.53,.32-21.05,.32-31.58,0,.55-1.91,2.22-1.3,3.49-1.5,1.61-.25,3.31,.35,4.82-.46,.35-.86-.18-1.4-.7-1.64-5.6-2.63-10.79-6.41-17.35-6.45-.53,0-1-.17-1.36-.58,2.04-2.6,4.37-4.9,6.96-6.95,2.49-1.32,4.97-1.03,7.34,.25,7.54,4.06,15.54,7.17,22.97,11.45,2.14,1.23,4.06,2.65,5.42,4.75,.19,.38,.19,.76-.01,1.14Z"/>
    <path class="uuid-d5bf3bb6-d5ff-4519-a19d-17ccc8c2bfbb" d="M125.47,89.23c-1.69,1.41-3.69,.45-5.54,.72-.74,.11-1.64-.06-1.92,.87-.31,1.02,.72,1.06,1.21,1.56,5.63,5.69,12.62,9.33,19.52,13.12,1.43,.79,2.81,1.85,2.95,3.75-1.92,0-3.88-.21-5.77,.04-5.59,.74-10.31-1.01-14.37-4.72-4.85-4.43-11.13-6.62-16.31-10.62-2.52-1.95-3.04-2.78-.62-4.74,6.95,0,13.9,0,20.84,0Z"/>
    <path class="uuid-21697005-75ac-4115-8c2f-f3a1ae8a8afb" d="M98.45,56.95c7.45,0,14.91,0,22.36,0-1.1,2.33-3.27,1.2-4.98,1.52-1.06,.2-2.55-.37-2.96,1.07-.33,1.17,.88,1.89,1.73,2.25,6.95,3,12.32,8.57,19.22,11.71,1.99,.91,4.05-.09,5.81,1.07-1.14,1.46-2.19,3.03-4.15,3.53-1.01-.25-2.06-.26-3.06-.12-5.66,.8-10.58-1.01-15.07-4.25-5.61-4.05-11.4-7.8-17.38-11.3-3.19-1.87-3.36-3.12-1.51-5.51Z"/>
    <path class="uuid-849831ae-22f8-4fe6-903b-293c4180ecc8" d="M58.32,89.23c5.89,2.22,10.71,6.24,16.04,9.4,4.3,2.55,9.36,3.55,13.34,7.03,3.35,2.93,7.88,3.79,12.31,4.3-4.02,.97-8.1,.19-12.15,.45-2.16,0-4.32,0-6.49,0-2-.08-4.02,.16-6.36-.23,1.06-2.22,2.98-1.56,5.29-2.37-4.48-2.2-8.52-3.82-12.27-5.98-4.98-2.87-10.84-3.92-15.52-7.39-1.58-1.17-2.84,.04-4.25,.15-.67-.56-1.36-1.1-1.99-1.7-.74-.7-1.47-1.49-1.06-2.63,.42-1.18,1.48-1.2,2.52-1.19,3.53,.05,7.07,.1,10.6,.15Z"/>
    <path class="uuid-573393e2-99bb-4b27-ab54-667f9a2ab87a" d="M98.45,56.95c-1.48,2.07-.34,3.41,1.39,4.33,8.57,4.52,16.1,10.65,24.43,15.55,1.85,1.09,3.71,.57,5.57,.78,1.87,.21,3.83-.5,5.63,.52-3.85,.45-7.71,.32-11.57,.09-2.8-.52-5.64-.3-8.44-.18-3.12,.13-5.85-.65-8.3-2.47-5.37-3.98-11.07-7.43-16.89-10.7-1.73-.97-3.02-2.45-3.77-4.27-.76-1.83-.42-3.3,1.89-3.65h10.05Z"/>
    <path class="uuid-63f6a243-a75b-49b4-8ff3-cb2d34ee6593" d="M103.87,78.21c-2.84,0-5.69,0-8.53,0-.86-.38-1.79-.34-2.66-.21-8.04,1.23-14.37-2.48-20.44-6.98-2.59-1.92-5.51-3.28-8.27-4.91-4.06-2.41-4.31-3.3-1.84-7.15,.33-.72,.78-1.3,1.62-1.45,1.8-.77,3.69-.2,5.53-.36,7.15,7.88,17.06,11.46,25.94,16.66,2.66,1.56,5.28,3.05,8.4,3.4,.37,.26,.45,.59,.25,1Z"/>
    <path class="uuid-23ed7e1e-7997-4046-aacf-3bbd0eeed67b" d="M135.49,56.97c5.47-.04,10.93-.08,16.4-.11,1.14,0,2.36-.14,2.89,1.25,.44,1.17-.29,1.94-1.03,2.66-2.64,2.56-5.3,5.1-7.95,7.65-.88,.27-1.6,.81-2.19,1.49-1.56,1.79-3.34,1.72-5.13,.52-4.02-2.7-7.99-5.47-12.28-7.76-1.39-.74-2.36-2.03-1.79-3.82,.55-1.72,1.99-1.67,3.44-1.7,2.55-.05,5.1,.24,7.64-.17Z"/>
    <path class="uuid-448a198b-fd5e-45b5-8160-111cf52a84d0" d="M140.16,138.48c-.35-2.43-2.03-3.41-4.07-4.56-6.86-3.88-14.41-6.4-21.01-10.75-1.7-1.12-3.45-.58-5.18-.79-1.48-.17-3.08,.49-4.44-.61,6.18,0,12.35,0,18.53,0,.6,.29,1.24,.24,1.88,.25q11.11,.2,20.44,5.23c1.17,.63,2.69,1.14,2.42,3-2.64,2.97-5.25,5.96-8.56,8.23Z"/>
    <path class="uuid-98b7d9cf-0274-4653-aa2c-6f40d01ef270" d="M48.26,94.6c.49-2.38,1.79-2.79,3.79-1.58,8.16,4.92,17.19,8.04,25.62,12.41,1.02,.53,2.09,.98,3.06,1.59,.49,.31,1.16,.93,1.13,1.36-.08,1.01-1.07,.86-1.81,.88-1.26,.03-2.53,0-3.84,.48,1.72,.23,3.45,.45,5.17,.68-5.13,.06-10.27,.12-15.4,.19-1.36,.02-2.5-.46-3.45-1.43-4.75-4.86-9.51-9.71-14.27-14.57Z"/>
    <path class="uuid-83ad8a18-5e2a-4f7a-bcd2-3f82ee7511ac" d="M135.49,56.97c-2.43,1.13-5.01,.41-7.52,.52-1.44,.07-2.56,.4-2.93,1.86-.36,1.41,.74,2.18,1.74,2.63,4.21,1.89,7.95,4.51,11.62,7.26,1.82,1.37,3.57,1.98,5.31-.15,.51-.63,1.3-.76,2.1-.69-1.82,2.3-3.87,4.36-6.18,6.18-3.19,1.81-5.83,.05-8.37-1.48-6.3-3.81-12.52-7.77-18.78-11.65-.91-.57-1.8-1.08-1.23-2.39,.46-1.06,1.22-1.46,2.39-1.55,2.39-.2,4.86,.64,7.17-.55,4.9,0,9.79,0,14.69,0Z"/>
    <path class="uuid-4e12c341-eec3-47c3-a526-5644fe6828a9" d="M53.47,132.36c3.11-1.23,5.97-.56,8.67,1.2,3.32,2.16,7.53,2.38,10.71,4.92,1.15,.92,2.45,1.86,1.96,3.31-.43,1.27-2.03,.52-3.1,.66-2.37,.3-4.83-.57-7.14,.55-5.47,.05-10.94,.1-16.41,.15-1.17,.01-2.35,.05-2.88-1.3-.47-1.2,.36-1.94,1.07-2.64,2.35-2.31,4.75-4.57,7.13-6.85Z"/>
    <path class="uuid-6417bd72-8e09-4001-8674-8fe427cb4955" d="M62.13,58.97c-1.75,3.35-.36,4.95,2.79,6.63,6.25,3.33,12.24,7.19,18.2,11.04,1.59,1.02,3.11,.83,4.72,.99,2.5,.24,5.08-.64,7.5,.6-7.21,0-14.41,0-21.62,.01-7.37-.28-12.66-5.02-18.44-8.66-1.7-1.07-.78-2.44-.11-3.69,2.32-2.3,4.64-4.6,6.96-6.91Z"/>
    <path class="uuid-7a0d7a5e-b729-4646-ab9e-0074fbd559ae" d="M69.91,57.56c-2.05-.01-4.1-.02-6.15-.04,1.83-1.38,3.93-.65,5.9-.67,6.25-.06,12.5,.05,18.75,.1-2.05,2.46-1.57,4.91,2.02,6.87,6.28,3.42,12.26,7.27,18.06,11.44,2.57,1.85,5.4,2.62,8.65,2.43,2.23-.13,4.61-.72,6.78,.53-6.68,0-13.36,0-20.04,0-.01-.2-.02-.41-.03-.61-3.47-.7-5.99-2.94-8.87-4.82-4.65-3.04-8.7-6.73-13.09-10.03-2.03-1.53-2.94-2.88-1.15-4.58-3.43,.31-7.16,1.13-10.83-.61Z"/>
    <path class="uuid-cd6f9114-590e-47a6-b7ac-cc53355a282d" d="M96.16,142.52c-8.81-7.97-20.31-11.06-30.43-16.66-1.42-.78-3.51-.33-5.29-.45,.83-1.28,1.79-2.42,3.23-3.05,2.08,.02,4.16,.04,6.24,.06,7.3,.89,12.88,5.15,18.49,9.37,1.48,1.11,3.3,1.38,5.04,1.81,2.71,.66,4.43,2.46,5.74,4.77,.65,1.15,1.18,2.43,.41,3.64-.85,1.34-2.19,.94-3.43,.52Z"/>
    <path class="uuid-4cee3954-5771-47a5-98f0-714ec8ed52a1" d="M96.16,142.52c3.24,.02,3.91-1.12,2.05-3.93-1.4-2.12-2.82-3.87-5.58-4.12-5.17-.47-8.06-5.04-12.41-7.07-2.84-1.32-5.07-3.91-8.63-3.58-.77,.07-1.33-.68-1.68-1.41,3.62-.28,6.85,.4,10.2,2.23,8.84,4.82,17.95,9.13,27.23,13.08,2.1,.89,5.46,1.49,3.53,5.3-4.91,0-9.81-.02-14.72-.03,0-.16,0-.32,.01-.48Z"/>
    <path class="uuid-a8bf1611-4e1a-4457-9577-1bfe07be3000" d="M55.17,65.87c-.32,1.56-.31,2.69,1.52,3.68,4.24,2.28,8.3,4.9,12.34,7.52,1.5,.97,3.37-.15,4.7,1.16-8.56,.06-17.12,.11-25.68,.17-1.02,0-2.13,.12-2.69-1-.66-1.31,.24-2.15,1.07-2.96,2.91-2.85,5.83-5.7,8.74-8.55Z"/>
    <path class="uuid-29c5ad72-de78-424f-8f4a-5501118be0ba" d="M148.72,130.25c-1.62-1.99-3.94-2.66-6.26-3.33-1.98-.57-3.93-1.26-5.03-3.16-.89-1.54-2.29-1.27-3.67-1.38-3.25-.26-6.58,.69-9.77-.61,9.39-.05,18.77-.1,28.16-.16,1.05,0,2.14-.02,2.6,1.17,.44,1.15-.29,1.97-1.04,2.7-1.64,1.61-3.32,3.19-4.98,4.78Z"/>
    <path class="uuid-d5bf3bb6-d5ff-4519-a19d-17ccc8c2bfbb" d="M87.87,110.41c4.02-.82,8.11-.04,12.15-.45,5.41,0,10.82,0,16.24,0,.77,.08,1.53,.15,2.3,.23,0,0,.02,.24,.02,.24-10.23,.31-20.47,.32-30.7-.02Z"/>
    <path class="uuid-d5bf3bb6-d5ff-4519-a19d-17ccc8c2bfbb" d="M142.47,109.27h8.34c0,.23,0,.45,0,.68-2.79,0-5.58,0-8.36,0,.01-.23,.02-.45,.02-.68Z"/>
    <path class="uuid-79d5cc39-489b-4c74-b103-487a8d11b62c" d="M69.91,57.56h11.97c-1.82,2.28-1.67,3.83,1.15,4.69,1,.31,1.8,1.37,2.62,2.16,2.46,2.38,4.93,4.52,8.16,6.1,3.6,1.76,5.98,5.67,10.03,7.09-5.17,1.25-8.78-2.58-12.52-4.66-6.2-3.46-12.82-6.35-18.46-10.82-1.52-1.21-3.19-2.24-2.95-4.56Z"/>
  </g>
</svg>