<?xml version="1.0" encoding="UTF-8"?>
<svg id="uuid-9811bef4-487f-4bc3-8eac-83aa9970369c" data-name="Layer 1" xmlns="http://www.w3.org/2000/svg" viewBox="0 0 200 200">
  <defs>
    <style>
      .uuid-54fe162f-27ee-40f6-8b2c-0673bffe41ee {
        fill: #7b54c3;
      }

      .uuid-039fbc9d-11cd-43ad-ad6e-eb1e840ab75f {
        fill: #fefefd;
      }

      .uuid-3e4a54f7-394a-4562-a779-11e50a3f5ef7 {
        fill: #7b54c0;
      }
    </style>
  </defs>
  <rect x="8.61" y="9.48" width="182.78" height="181.04" rx="16.96" ry="16.96"/>
  <g>
    <path class="uuid-039fbc9d-11cd-43ad-ad6e-eb1e840ab75f" d="M148.42,125.29c-.76,2.06-2.21,3.37-4.14,4.42-6.36,3.47-12.65,7.07-18.96,10.63-2.41,1.36-4.73,1.32-7.16-.07-6.51-3.72-13.05-7.38-19.61-11.02-2.26-1.25-3.42-3.07-3.4-5.65,.02-2.08,.05-4.16-.02-6.24-.03-1,.28-1.61,1.19-2.11,2.65-1.44,5.24-2.97,8.05-4.58,.49,2.19,.35,4.18,.23,6.13-.23,3.59,1.18,5.99,4.4,7.6,3.15,1.58,6.17,3.42,9.24,5.15,2.35,1.32,4.63,1.31,6.97-.09,3.41-2.04,6.87-3.99,10.31-5.96,2.04-1.16,3.11-2.86,3.1-5.24-.02-3.97-.02-7.95,.02-11.92,.03-2.61-1.2-4.43-3.41-5.68-3.07-1.74-6.23-3.34-9.21-5.21-3.03-1.9-5.77-1.76-8.83,.02-10.52,6.1-21.13,12.05-31.71,18.04-1.48,.84-2.98,1.65-4.47,2.46-1.93,1.05-3.9,1.04-5.78-.01-6.94-3.86-13.85-7.76-20.78-11.64-1.46-.82-2.3-2.11-2.88-3.61-.31-.38-.21-.84-.21-1.27,0-7.82,0-15.64,0-23.46,0-.43-.1-.89,.2-1.28,.71-2.2,2.34-3.43,4.29-4.5,6.3-3.45,12.55-7,18.8-10.53,2.41-1.36,4.74-1.33,7.15,.07,6.32,3.67,12.67,7.3,19.05,10.87,2.52,1.41,3.76,3.4,3.65,6.3-.08,1.95-.04,3.91,0,5.87,.02,.91-.23,1.56-1.07,2.01-2.22,1.2-4.4,2.45-6.6,3.67-1.78,.99-1.79,.98-1.8-.97-.01-1.89,0-3.78,0-5.68,0-2.43-1.11-4.27-3.15-5.46-3.59-2.1-7.21-4.15-10.88-6.12-2.01-1.08-4.12-1.06-6.15,.07-3.63,2.03-7.26,4.07-10.88,6.12-1.98,1.12-2.96,2.83-2.95,5.13,.02,3.97,.03,7.95-.01,11.92-.03,2.53,1.09,4.37,3.21,5.6,3.6,2.09,7.21,4.15,10.86,6.15,2.08,1.14,4.19,1.14,6.3-.07,11.71-6.7,23.49-13.26,35.1-20.11,3.65-2.15,6.7-2.28,10.33-.02,5.78,3.58,11.79,6.8,17.75,10.09,1.79,.99,3.18,2.23,3.86,4.19,.28,.32,.21,.71,.21,1.08,0,7.94,0,15.89,0,23.83,0,.37,.07,.76-.21,1.08Z"/>
    <path class="uuid-3e4a54f7-394a-4562-a779-11e50a3f5ef7" d="M51.57,74.7c0,8.67,0,17.34,0,26.02-.42-.54-.38-1.18-.39-1.81,0-7.63-.02-15.25-.01-22.88,0-.45-.25-1.04,.39-1.33Z"/>
    <path class="uuid-54fe162f-27ee-40f6-8b2c-0673bffe41ee" d="M148.42,125.29c0-8.67,0-17.33,0-25.99,.43,.54,.4,1.17,.4,1.8,0,7.63,.02,15.25,0,22.88,0,.45,.27,1.04-.4,1.31Z"/>
  </g>
</svg>