<?xml version="1.0" encoding="UTF-8"?>
<svg id="uuid-9a707377-7a4d-49ca-bb47-237375d0a4f5" data-name="Layer 1" xmlns="http://www.w3.org/2000/svg" viewBox="0 0 200 200">
  <defs>
    <style>
      .uuid-5a3acfa1-89a6-470e-a22e-d67c4dc83be1 {
        fill: #040404;
      }

      .uuid-802609ae-ab09-476a-98b6-1dc26c805463 {
        fill: #010101;
      }

      .uuid-0b278fed-e0ac-406c-bff5-d444497f21a9 {
        fill: #fefefe;
      }
    </style>
  </defs>
  <rect x="8.61" y="9.48" width="182.78" height="181.04" rx="16.96" ry="16.96"/>
  <g>
    <path class="uuid-0b278fed-e0ac-406c-bff5-d444497f21a9" d="M56.6,44.73c5.3,.09,11.14,3.71,15.92,8.72,3.92,4.1,7.86,5.89,13.4,4.08,5.95-1.94,11.87-2.11,18.07-.29,3.48,1.02,6.91-1.46,10.15-3.03,7.09-3.45,13.66-8.03,21.55-9.74,5.2-1.12,10.17-1.26,14.79,2.09,4.23,3.07,5.57,6.71,3.79,11.76-2.26,6.42-6.38,11.53-12.83,13.61-10.06,3.25-11.92,11.01-13.25,20.01-2.23,15.06-4.99,30.09-11.86,43.91-3.8,7.65-8.65,14.43-16.9,18.06-10.88,4.79-16.58,2.25-23.87-8.37-5.13-7.47-6.9-16.3-6.9-25.42,0-15.36-4.21-29.99-8.22-44.61-1.29-4.71-6.39-6.51-9.79-9.57-5.04-4.53-6.82-9.27-5-14.81,1.59-4.85,3.79-6.43,10.94-6.42Z"/>
    <path d="M89.47,152.07c-6.72,0-9.96-3.09-9.67-9.81,.42-9.99,5.38-14.47,12.74-14.73,6.21-.22,12.34,4.93,12.22,11.73-.13,6.97-6.99,12.8-15.28,12.8Z"/>
    <path d="M119.02,94.18c-.14,3.96-.73,7.41-4,8.79-3.94,1.66-8.27,.75-11.42-1.86-2.61-2.16-3.25-5.5-1.87-9.21,.83-2.22,1.63-4.39,2.9-6.37,1.7-2.65,4.01-4.53,7.29-4.11,3.33,.42,5.12,3.15,5.93,5.94,.68,2.34,1.72,4.82,1.17,6.82Z"/>
    <path class="uuid-802609ae-ab09-476a-98b6-1dc26c805463" d="M78.06,84.66c4.12-.03,6.73,2.77,6.81,7.27,.08,4.78-2.53,8.06-6.52,8.18-3.76,.11-7.05-3.65-6.93-7.93,.12-4.67,2.62-7.49,6.65-7.51Z"/>
    <path class="uuid-5a3acfa1-89a6-470e-a22e-d67c4dc83be1" d="M115.47,64.73c2.23-.72,5.53-1.33,1.63-4.42-.49-.39-.63-1.08,.06-1.31,2.23-.76,4.49-1.43,6.77-1.99,.2-.05,1.17,.65,.43,1.58-.65,.81,.64,2.4-1.33,2.95-1.19,.34-1.49,1.76-1.58,3.18-.28,4.52-.63,4.64-4.39,2.12-.7-.47-1.48-.84-1.59-2.1Z"/>
  </g>
</svg>