<?xml version="1.0" encoding="UTF-8"?>
<svg id="uuid-c29109b9-6041-40c9-8f2e-1fc6a18508e1" data-name="Layer 1" xmlns="http://www.w3.org/2000/svg" viewBox="0 0 200 200">
  <defs>
    <style>
      .uuid-0b2c4e9b-55f2-4f2a-ac34-14968c9c2d67 {
        fill: #ff8500;
      }
    </style>
  </defs>
  <rect x="8.61" y="9.48" width="182.78" height="181.04" rx="16.96" ry="16.96"/>
  <path class="uuid-0b2c4e9b-55f2-4f2a-ac34-14968c9c2d67" d="M139.13,88.77c.83-6.42-1.61-11.41-6.83-15.12-3.35-2.39-7.09-3.97-10.97-5.24-.87-.29-1.05-.62-.85-1.48,1.02-4.4,1.95-8.83,2.97-13.24,.15-.63,.07-.83-.6-.97-2.49-.5-4.98-1.07-7.45-1.67-.75-.17-1.03-.09-1.22,.76-.9,4.31-1.93,8.58-2.84,12.89-.16,.8-.45,.87-1.13,.71-1.84-.42-3.68-.85-5.55-1.17-.8-.14-.87-.41-.7-1.13,.98-4.33,1.9-8.67,2.9-13,.15-.65,.16-.92-.61-1.07-2.5-.5-4.98-1.08-7.47-1.67-.66-.15-.98-.11-1.16,.71-.92,4.34-1.97,8.66-2.86,13-.21,1.04-.56,1.22-1.54,1-5.45-1.24-10.91-2.4-16.35-3.67-.87-.2-1.06,.05-1.21,.78-.54,2.54-1.07,5.08-1.7,7.58-.27,1.06-.01,1.39,1.03,1.58,2.19,.36,4.38,.76,6.47,1.51,2.46,.87,3.77,3.02,3.25,5.39-2.97,13.4-5.96,26.8-8.96,40.2-.58,2.61-2.07,3.55-4.7,3-1.82-.37-3.62-.76-5.4-1.24-.77-.21-1.01,.04-1.26,.67-1.13,2.87-2.25,5.75-3.48,8.57-.45,1.02-.17,1.26,.81,1.47,5.3,1.14,10.59,2.36,15.89,3.51,1.08,.22,1.46,.54,1.16,1.77-1.06,4.34-1.95,8.73-2.95,13.1-.15,.63-.09,.83,.58,.97,2.5,.51,4.98,1.08,7.45,1.68,.77,.19,1.05,.04,1.22-.78,.93-4.42,1.97-8.82,2.91-13.24,.16-.78,.45-.91,1.17-.72,1.74,.45,3.51,.85,5.29,1.21,.83,.17,1.12,.44,.9,1.39-1.03,4.35-1.95,8.75-2.95,13.1-.16,.68-.1,.92,.63,1.06,2.5,.51,4.99,1.08,7.47,1.67,.7,.16,.98,.06,1.16-.73,.93-4.47,1.97-8.91,2.92-13.38,.16-.75,.39-1,1.21-.86,4.69,.76,9.39,1.22,14.13,.67,5.04-.59,9.53-2.31,12.83-6.33,3.2-3.91,4.74-8.51,5.25-13.49,.6-5.69-1.47-10.2-6.03-13.64-1.21-.91-2.55-1.62-4.08-2.51,7.09-1.98,10.38-6.84,11.25-13.59Zm-26.86,36.19c-1.77,.42-3.57,.59-5.39,.54-5.21-.06-10.25-1.24-15.29-2.45-.54-.12-.66-.34-.55-.83,1.41-6.3,2.8-12.58,4.19-18.87,.1-.47,.3-.72,.83-.61,6.15,1.31,12.38,2.3,17.88,5.62,2.28,1.38,4.17,3.12,4.95,5.76,1.44,4.9-1.46,9.58-6.63,10.85Zm8.8-36.01c-.86,3.61-3.51,5.84-7.6,6.32-.97,.12-1.97,.17-2.49,.21-4.68-.07-8.76-1.03-12.84-1.99-.9-.2-.51-.8-.42-1.23,1.07-4.89,2.16-9.78,3.26-14.67,.6-2.63,.61-2.61,3.3-2.1,3.51,.67,6.99,1.46,10.25,2.99,.93,.44,1.84,.92,2.69,1.49,3.38,2.28,4.7,5.41,3.86,8.98Z"/>
</svg>